<?xml version="1.0" encoding="iso-8859-1"?>
<!-- Generator: Adobe Illustrator 15.1.0, SVG Export Plug-In . SVG Version: 6.00 Build 0)  -->
<!DOCTYPE svg PUBLIC "-//W3C//DTD SVG 1.1//EN" "http://www.w3.org/Graphics/SVG/1.1/DTD/svg11.dtd">
<svg version="1.1" id="Layer_1" xmlns="http://www.w3.org/2000/svg" xmlns:xlink="http://www.w3.org/1999/xlink" x="0px" y="0px"
	 width="300px" height="150px" viewBox="0 0 300 150" style="enable-background:new 0 0 300 150;" xml:space="preserve">
<g>
	<g id="ARC_1_">
		<g>
			<g>
				<polygon style="fill:#282443;" points="280.769,7.909 268.878,19.8 197.547,19.8 197.547,7.909 				"/>
				<polygon style="fill:#282443;" points="257.01,31.692 245.117,43.586 197.547,43.586 197.547,31.692 				"/>
				<path style="fill:#282443;" d="M233.224,55.479L221.33,67.348h-27.664c1.635-3.778,2.756-7.786,3.369-11.869H233.224z"/>
				<path style="fill:#282443;" d="M185.653,7.909v40.602c0,19.704-15.95,35.654-35.651,35.654c-19.705,0-35.68-15.95-35.68-35.654
					v-4.925H54.883L42.99,31.692h83.225v16.818c0,13.119,10.643,23.761,23.787,23.761c13.116,0,23.783-10.642,23.783-23.761V19.8
					H31.097L19.231,7.909H185.653z"/>
				<path style="fill:#282443;" d="M106.334,67.348H78.67L66.777,55.479h36.188C103.553,59.562,104.701,63.569,106.334,67.348z"/>
			</g>
		</g>
	</g>
	<g>
		<g>
			<path style="fill:#282443;" d="M92.956,129.646h-6.639v11.733h-8.179v-40.3h14.817c9.562,0,14.343,4.665,14.343,13.986
				c0,4.706-1.218,8.31-3.646,10.816C101.223,128.396,97.657,129.646,92.956,129.646z M86.317,122.653h6.58
				c4.067,0,6.104-2.53,6.104-7.587c0-2.487-0.496-4.276-1.483-5.363c-0.987-1.084-2.528-1.63-4.621-1.63h-6.58V122.653z"/>
			<path style="fill:#282443;" d="M113.049,141.38v-40.3h8.177v40.3H113.049z"/>
			<path style="fill:#282443;" d="M152.931,141.38h-22.934v-40.3h8.18v33.07h14.754V141.38z"/>
			<path style="fill:#282443;" d="M185.499,137.083c-2.513,3.34-6.824,5.008-12.95,5.008c-6.123,0-10.442-1.668-12.95-5.008
				c-2.509-3.334-3.763-8.563-3.763-15.676c0-7.11,1.254-12.395,3.763-15.852c2.508-3.459,6.827-5.186,12.95-5.186
				c6.126,0,10.438,1.727,12.95,5.186c2.507,3.457,3.763,8.741,3.763,15.852C189.262,128.52,188.006,133.749,185.499,137.083z
				 M165.999,131.869c1.167,2.074,3.35,3.11,6.55,3.11s5.384-1.036,6.547-3.11c1.167-2.073,1.75-5.55,1.75-10.43
				c0-4.883-0.591-8.427-1.777-10.64c-1.186-2.211-3.359-3.317-6.52-3.317s-5.333,1.106-6.52,3.317
				c-1.187,2.213-1.777,5.757-1.777,10.64C164.252,126.319,164.833,129.796,165.999,131.869z"/>
			<path style="fill:#282443;" d="M192.226,108.31v-7.229h29.636v7.229h-10.672v33.07h-8.18v-33.07H192.226z"/>
		</g>
	</g>
</g>
</svg>
